<svg width="64" height="64" fill="none" xmlns="http://www.w3.org/2000/svg"><path d="M18.845 31.46H20.1v-5.444h.021l3.491 5.448h1.596V24.36h-1.257v5.274h-.017l-3.428-5.274h-1.659v7.1h-.003Zm8.372-2.003a3.375 3.375 0 0 0 1.952 1.922c.48.18.989.272 1.5.265a4.13 4.13 0 0 0 1.518-.287 3.565 3.565 0 0 0 1.19-.768 3.42 3.42 0 0 0 .78-1.175c.19-.481.282-.998.272-1.515a4.14 4.14 0 0 0-.28-1.547 3.417 3.417 0 0 0-.78-1.182 3.275 3.275 0 0 0-1.189-.747 4.105 4.105 0 0 0-1.517-.244 4.177 4.177 0 0 0-1.5.266c-.442.166-.84.424-1.176.757-.339.34-.604.743-.78 1.19a4.083 4.083 0 0 0-.261 1.55 3.975 3.975 0 0 0 .278 1.515h-.007Zm1.211-2.588c.113-.3.279-.573.494-.807.216-.23.473-.417.766-.541.314-.135.653-.202.996-.195a2.55 2.55 0 0 1 .999.195c.29.124.554.308.77.541.214.234.384.51.493.807.117.319.173.652.17.991a3.08 3.08 0 0 1-.177 1.055c-.11.308-.275.591-.494.832a2.25 2.25 0 0 1-.77.552 2.414 2.414 0 0 1-.998.202 2.381 2.381 0 0 1-.992-.202 2.27 2.27 0 0 1-.763-.552 2.456 2.456 0 0 1-.494-.832 3.06 3.06 0 0 1-.173-1.055c-.003-.34.057-.676.177-.994l-.004.003Zm9.019 4.591h1.157l1.638-5.408h.021l1.642 5.408h1.196l2.055-7.1h-1.278l-1.383 5.118h-.022l-1.56-5.118h-1.239l-1.588 5.118h-.021l-1.328-5.118h-1.383l2.093 7.1Z" fill="#00C26F"/><path d="m20.181 35.722.88 3.036h.018l1.02-3.036h.553l1.02 3.036h.017l.88-3.036h.637L24 39.46H23.4l-1.009-3.068h-.017l-1.009 3.068h-.604l-1.205-3.738h.625ZM28.84 37.503c-.137 0-.308.007-.516.025-.2.01-.397.042-.586.094-.186.05-.343.127-.48.232a.529.529 0 0 0-.196.438c0 .123.025.228.072.32a.762.762 0 0 0 .21.216.981.981 0 0 0 .287.12c.107.02.218.031.325.031.197 0 .365-.031.504-.094.147-.063.268-.151.365-.256.097-.112.168-.239.211-.383.05-.15.072-.304.072-.47v-.27h-.269v-.003Zm.278-.431v-.098c0-.645-.325-.968-.976-.968-.447 0-.833.148-1.166.438l-.325-.375c.357-.36.894-.543 1.613-.543.186 0 .36.028.529.08.175.053.322.137.447.25.125.105.225.241.3.406.075.165.115.361.115.59v1.668c0 .144.003.295.017.456.018.154.033.284.05.382h-.521a3.26 3.26 0 0 1-.04-.294c-.003-.106-.007-.211-.007-.313h-.018a1.47 1.47 0 0 1-.561.544 1.744 1.744 0 0 1-.783.161c-.169 0-.33-.025-.49-.07a1.308 1.308 0 0 1-.426-.2 1.192 1.192 0 0 1-.293-.343 1.026 1.026 0 0 1-.107-.48c0-.306.078-.54.236-.712.164-.176.364-.306.6-.39.244-.084.501-.136.773-.16.275-.022.529-.032.758-.032l.275.003ZM32.33 39.46h-.54v-6.038h.54v6.038ZM35.062 39.46h-.54v-6.038h.54v6.038ZM40.096 37.205c0-.357-.108-.645-.325-.862-.219-.225-.523-.337-.913-.337a1.25 1.25 0 0 0-.504.105c-.164.064-.307.151-.432.263a1.45 1.45 0 0 0-.293.383.984.984 0 0 0-.108.448h2.575Zm-2.589.435c.018.186.064.361.14.53.074.164.175.308.3.43.125.116.268.211.432.281.165.07.34.105.53.105.29 0 .533-.063.74-.189.21-.133.372-.284.48-.456l.414.337a2.018 2.018 0 0 1-.758.606 2.11 2.11 0 0 1-.88.183c-.282 0-.547-.05-.79-.144a1.88 1.88 0 0 1-.619-.417 1.958 1.958 0 0 1-.415-.624 2.07 2.07 0 0 1-.146-.782c0-.284.05-.544.146-.782a1.837 1.837 0 0 1 1.019-1.03c.233-.103.487-.152.759-.152.29 0 .547.05.772.151.229.102.418.239.569.407.157.164.275.361.357.589.082.224.122.463.122.719v.238h-3.172ZM44.405 36.104h-1.098v2.206c0 .136.014.252.043.343.029.084.064.15.114.2.05.049.108.084.172.105a.959.959 0 0 0 .229.025 1.195 1.195 0 0 0 .554-.144l.025.488a1.749 1.749 0 0 1-1.051.098.809.809 0 0 1-.3-.151.827.827 0 0 1-.23-.305 1.17 1.17 0 0 1-.089-.502v-2.356h-.804v-.48h.804v-1.055h.537v1.055h1.097l-.003.473Z" fill="#fff"/><path fill-rule="evenodd" clip-rule="evenodd" d="M32.102 9.645c-1.882 0-5.327.765-8.902 1.739h-.002c-3.545.957-7.134 2.095-9.25 2.79a2.693 2.693 0 0 0-1.824 2.213c-1.845 13.86 2.426 24.03 7.547 30.727.02.026.038.053.055.08a35.865 35.865 0 0 0 7.617 7.41c1.16.82 2.203 1.424 3.045 1.821l.003.001c.864.41 1.447.56 1.707.56.257 0 .833-.15 1.698-.555a20.62 20.62 0 0 0 3.051-1.82l.001-.001a35.896 35.896 0 0 0 7.704-7.517c5.113-6.699 9.37-16.86 7.528-30.703a2.734 2.734 0 0 0-.598-1.378 2.68 2.68 0 0 0-1.228-.842A200.533 200.533 0 0 0 41 11.38c-3.577-.967-7.017-1.735-8.898-1.735Zm-9.437-.229c3.529-.96 7.237-1.81 9.437-1.81 2.2 0 5.906.853 9.432 1.806l.005.001a202.46 202.46 0 0 1 9.352 2.82l.003.001a4.72 4.72 0 0 1 2.163 1.483 4.773 4.773 0 0 1 1.048 2.432c1.911 14.416-2.53 25.097-7.923 32.169a37.936 37.936 0 0 1-8.145 7.948 22.661 22.661 0 0 1-3.358 2.003l-.01.005c-.903.424-1.832.75-2.57.75-.742 0-1.674-.325-2.58-.754-.969-.457-2.115-1.125-3.357-2.003l-.006-.004a37.904 37.904 0 0 1-8.108-7.907 1.032 1.032 0 0 1-.05-.075C12.613 41.21 8.19 30.54 10.098 16.145l.004-.031a4.73 4.73 0 0 1 3.21-3.877m9.352-2.821c-3.594.97-7.221 2.121-9.352 2.82l9.352-2.82Z" fill="url(#a)"/><defs><linearGradient id="a" x1="32.1" y1="7.345" x2="32.1" y2="59.28" gradientUnits="userSpaceOnUse"><stop stop-color="#FB9600"/><stop offset=".25" stop-color="#00C26F"/><stop offset=".505" stop-color="#6696D6"/><stop offset=".776" stop-color="#F28984"/><stop offset="1" stop-color="#5FCEF0"/><stop offset="1" stop-color="#5FCEF0"/></linearGradient></defs></svg>
