<svg width="102" height="106" viewBox="0 0 102 106" fill="none" xmlns="http://www.w3.org/2000/svg">
<path d="M68.4146 39.1364C60.196 31.1323 47.1794 31.1323 39.0052 39.1364C30.8754 47.2733 31.0087 60.4956 39.0941 68.6325C47.1794 76.7693 60.4181 76.8577 68.5479 68.7209C68.6812 68.5882 69.2587 67.9691 70.2805 66.8636L60.507 57.0463C59.5296 58.2403 58.9521 58.8594 58.9077 58.8594C56.1533 61.6012 51.6664 61.6012 48.912 58.8594C46.1577 56.1177 46.1577 51.607 48.8232 48.9095C51.4887 46.2562 55.9756 46.2562 58.7744 48.9979C58.7744 48.9979 67.5261 57.7096 84.9852 75.1773C77.7883 85.5695 65.7491 92.1143 52.777 92.1143C31.3197 92.1143 13.8606 74.6024 13.8606 52.9779C13.8606 31.3534 31.3197 13.8415 52.777 13.8415C65.3049 13.8415 76.811 19.8557 83.9634 29.6729C82.8084 30.9996 79.8763 34.3605 75.1228 39.7555L84.8075 49.3959L100.845 31.3091C92.493 12.4706 73.7456 0 52.7326 0C23.6341 0 0 23.7472 0 52.9779C0 82.2086 23.5897 106 52.7326 106C65.9712 106 76.9442 101.843 87.6507 92.6892C97.3798 84.4197 102 72.922 102 72.922L68.4146 39.1364Z" fill="url(#paint0_linear_72693_43114)"/>
<defs>
<linearGradient id="paint0_linear_72693_43114" x1="24.744" y1="93.7288" x2="78.1335" y2="12.8754" gradientUnits="userSpaceOnUse">
<stop stop-color="#5B58F3"/>
<stop offset="0.195673" stop-color="#4C78FB"/>
<stop offset="0.445123" stop-color="#34A7FF"/>
<stop offset="0.955" stop-color="#3DDFB6"/>
</linearGradient>
</defs>
</svg>
